<svg width="621" height="82" viewBox="0 0 621 82" fill="none" xmlns="http://www.w3.org/2000/svg">
<path d="M57.768 7.944C58.9627 8.11466 59.7733 8.47733 60.2 9.032C60.6693 9.58666 60.904 10.312 60.904 11.208C60.904 14.152 59.3253 15.5173 56.168 15.304L53.928 15.112C51.4107 14.8987 48.8933 14.728 46.376 14.6C43.9013 14.472 41.2987 14.408 38.568 14.408H35.688C35.176 20.7227 34.6427 26.4827 34.088 31.688L45.096 31.496C46.6747 31.496 47.72 31.7733 48.232 32.328C48.7867 32.8827 49.064 33.6293 49.064 34.568C49.064 36.0187 48.6373 37.1707 47.784 38.024C46.9307 38.8347 45.7147 39.24 44.136 39.24H33.192L32.808 41.992C31.912 49.032 29.992 54.0453 27.048 57.032C24.1467 60.0187 20.136 61.512 15.016 61.512C12.1147 61.512 9.448 60.8933 7.016 59.656C4.584 58.376 2.792 56.84 1.64 55.048C1.17067 54.3227 0.936 53.448 0.936 52.424C0.936 51.4 1.17067 50.504 1.64 49.736C2.152 48.968 2.77067 48.584 3.496 48.584C4.008 48.584 4.49867 48.7547 4.968 49.096C5.48 49.4373 6.12 50.0987 6.888 51.08C8.936 53.768 11.4747 55.112 14.504 55.112C16.936 55.112 18.9627 54.1307 20.584 52.168C22.248 50.1627 23.3147 47.0267 23.784 42.76L24.168 39.24H21.096C20.1147 39.24 19.2613 38.9627 18.536 38.408C17.8533 37.8533 17.512 37.064 17.512 36.04C17.512 34.7173 17.8533 33.7147 18.536 33.032C19.2187 32.3067 20.2213 31.944 21.544 31.944C22.7387 31.944 23.912 31.9227 25.064 31.88C25.576 27.1867 26.1307 21.4907 26.728 14.792C22.12 15.2187 18.8773 15.9653 17 17.032C15.1227 18.0987 14.184 19.6773 14.184 21.768C14.184 23.2187 14.6107 24.6053 15.464 25.928C15.72 26.312 15.848 26.696 15.848 27.08C15.848 27.848 15.4213 28.5307 14.568 29.128C13.7147 29.6827 12.7547 29.96 11.688 29.96C10.536 29.96 9.55467 29.6187 8.744 28.936C8.232 28.5093 7.74133 27.6347 7.272 26.312C6.80267 24.9893 6.568 23.5173 6.568 21.896C6.568 16.6053 9.27733 12.7653 14.696 10.376C20.1573 7.98666 28.1147 6.792 38.568 6.792C45.8213 6.792 52.2213 7.176 57.768 7.944ZM81.6495 41.352C82.2042 41.352 82.6308 41.6293 82.9295 42.184C83.2282 42.7387 83.3775 43.4427 83.3775 44.296C83.3775 46.344 82.7588 47.56 81.5215 47.944C78.9615 48.84 76.1455 49.352 73.0735 49.48C72.2628 53.064 70.6628 55.944 68.2735 58.12C65.8842 60.2533 63.1748 61.32 60.1455 61.32C57.5855 61.32 55.3882 60.7013 53.5535 59.464C51.7615 58.2267 50.3962 56.584 49.4575 54.536C48.5188 52.488 48.0495 50.2693 48.0495 47.88C48.0495 44.6373 48.6682 41.7573 49.9055 39.24C51.1428 36.68 52.8495 34.696 55.0255 33.288C57.2015 31.8373 59.6122 31.112 62.2575 31.112C65.5002 31.112 68.1028 32.2427 70.0655 34.504C72.0708 36.7227 73.2442 39.4747 73.5855 42.76C75.5908 42.632 77.9802 42.2053 80.7535 41.48C81.0948 41.3947 81.3935 41.352 81.6495 41.352ZM60.6575 54.536C62.0228 54.536 63.1962 53.9813 64.1775 52.872C65.2015 51.7627 65.8842 50.1627 66.2255 48.072C64.9028 47.176 63.8788 46.0027 63.1535 44.552C62.4708 43.1013 62.1295 41.5653 62.1295 39.944C62.1295 39.2613 62.1935 38.5787 62.3215 37.896H62.0015C60.2948 37.896 58.8655 38.728 57.7135 40.392C56.6042 42.0133 56.0495 44.3173 56.0495 47.304C56.0495 49.6507 56.4975 51.4427 57.3935 52.68C58.3322 53.9173 59.4202 54.536 60.6575 54.536ZM84.4125 61.32C82.4925 61.32 80.9138 60.4453 79.6765 58.696C78.4818 56.904 77.8845 54.6853 77.8845 52.04C77.8845 48.84 78.0978 45.9173 78.5245 43.272C78.9512 40.584 79.6552 37.7467 80.6365 34.76C81.0632 33.48 81.6605 32.5627 82.4285 32.008C83.1965 31.4533 84.4125 31.176 86.0765 31.176C87.0152 31.176 87.6552 31.3253 87.9965 31.624C88.3805 31.9227 88.5725 32.3707 88.5725 32.968C88.5725 33.3093 88.3378 34.4613 87.8685 36.424C87.4418 38.0027 87.1005 39.432 86.8445 40.712C85.9912 45.192 85.5645 48.1787 85.5645 49.672C85.5645 50.568 85.6712 51.208 85.8845 51.592C86.0978 51.9333 86.4392 52.104 86.9085 52.104C87.5485 52.104 88.3378 51.464 89.2765 50.184C90.2578 48.904 91.2818 46.9627 92.3485 44.36C93.4578 41.7573 94.5245 38.5573 95.5485 34.76C95.8898 33.48 96.4018 32.5627 97.0845 32.008C97.8098 31.4533 98.8765 31.176 100.285 31.176C101.266 31.176 101.949 31.304 102.333 31.56C102.717 31.7733 102.909 32.2 102.909 32.84C102.909 33.9067 102.375 36.8293 101.309 41.608C100.114 47.0693 99.5165 50.44 99.5165 51.72C99.5165 52.5307 99.6872 53.1707 100.029 53.64C100.37 54.0667 100.818 54.28 101.373 54.28C102.226 54.28 103.229 53.768 104.381 52.744C105.575 51.6773 107.154 49.9707 109.117 47.624C109.629 47.0267 110.205 46.728 110.845 46.728C111.399 46.728 111.826 46.984 112.125 47.496C112.466 48.008 112.637 48.712 112.637 49.608C112.637 51.3147 112.231 52.6373 111.421 53.576C109.586 55.8373 107.602 57.6933 105.469 59.144C103.378 60.5947 100.989 61.32 98.3005 61.32C96.2525 61.32 94.7378 60.5307 93.7565 58.952C92.8178 57.3733 92.3485 55.1547 92.3485 52.296C91.6232 55.1973 90.5352 57.4373 89.0845 59.016C87.6338 60.552 86.0765 61.32 84.4125 61.32ZM111.991 61.32C110.37 61.32 109.218 60.4667 108.535 58.76C107.895 57.0533 107.575 54.3227 107.575 50.568C107.575 45.0213 108.364 39.752 109.943 34.76C110.327 33.5227 110.946 32.6267 111.799 32.072C112.695 31.4747 113.932 31.176 115.511 31.176C116.364 31.176 116.962 31.2827 117.303 31.496C117.644 31.7093 117.815 32.1147 117.815 32.712C117.815 33.3947 117.495 34.9307 116.855 37.32C116.428 39.0267 116.087 40.52 115.831 41.8C115.575 43.08 115.362 44.6587 115.191 46.536C116.599 42.8667 118.178 39.88 119.927 37.576C121.676 35.272 123.383 33.6293 125.047 32.648C126.754 31.6667 128.311 31.176 129.719 31.176C132.492 31.176 133.879 32.5627 133.879 35.336C133.879 37 133.41 40.008 132.471 44.36C131.66 48.072 131.255 50.5253 131.255 51.72C131.255 53.4267 131.874 54.28 133.111 54.28C133.964 54.28 134.967 53.768 136.119 52.744C137.314 51.6773 138.892 49.9707 140.855 47.624C141.367 47.0267 141.943 46.728 142.583 46.728C143.138 46.728 143.564 46.984 143.863 47.496C144.204 48.008 144.375 48.712 144.375 49.608C144.375 51.3147 143.97 52.6373 143.159 53.576C141.324 55.8373 139.34 57.6933 137.207 59.144C135.116 60.5947 132.727 61.32 130.039 61.32C127.863 61.32 126.22 60.7013 125.111 59.464C124.002 58.184 123.447 56.3493 123.447 53.96C123.447 52.7653 123.746 50.632 124.343 47.56C124.898 44.872 125.175 43.016 125.175 41.992C125.175 41.3093 124.94 40.968 124.471 40.968C123.916 40.968 123.127 41.6933 122.103 43.144C121.122 44.552 120.098 46.4293 119.031 48.776C118.007 51.1227 117.175 53.5973 116.535 56.2C116.066 58.2053 115.511 59.5707 114.871 60.296C114.274 60.9787 113.314 61.32 111.991 61.32ZM175.549 46.728C176.104 46.728 176.53 46.984 176.829 47.496C177.17 48.008 177.341 48.712 177.341 49.608C177.341 51.3147 176.936 52.6373 176.125 53.576C174.376 55.7093 172.456 57.544 170.365 59.08C168.274 60.5733 166.205 61.32 164.157 61.32C160.914 61.32 158.44 59.4213 156.733 55.624C154.941 57.8853 153.362 59.4 151.997 60.168C150.674 60.936 149.117 61.32 147.325 61.32C144.722 61.32 142.568 60.36 140.861 58.44C139.197 56.4773 138.365 53.9387 138.365 50.824C138.365 47.4107 139.09 44.2533 140.541 41.352C141.992 38.408 143.976 36.0187 146.493 34.184C149.053 32.3067 151.912 31.1973 155.069 30.856C155.88 22.5787 157.416 15.5173 159.677 9.672C161.981 3.784 164.989 0.839996 168.701 0.839996C170.536 0.839996 172.05 1.672 173.245 3.336C174.482 5 175.101 7.51733 175.101 10.888C175.101 15.6667 173.928 21.256 171.581 27.656C169.234 34.056 166.098 40.6267 162.173 47.368C162.344 49.8427 162.706 51.6133 163.261 52.68C163.858 53.7467 164.605 54.28 165.501 54.28C166.653 54.28 167.826 53.768 169.021 52.744C170.216 51.72 171.816 50.0133 173.821 47.624C174.333 47.0267 174.909 46.728 175.549 46.728ZM167.997 7.112C167.186 7.112 166.376 8.56266 165.565 11.464C164.754 14.3227 164.05 18.0773 163.453 22.728C162.898 27.3787 162.493 32.2427 162.237 37.32C167.016 26.9093 169.405 18.5467 169.405 12.232C169.405 10.6107 169.256 9.352 168.957 8.456C168.701 7.56 168.381 7.112 167.997 7.112ZM149.565 54.856C150.376 54.856 151.186 54.536 151.997 53.896C152.808 53.2133 153.832 51.976 155.069 50.184C154.642 47.88 154.429 45.2987 154.429 42.44C154.429 41.416 154.472 39.752 154.557 37.448C152.21 38.1733 150.248 39.752 148.669 42.184C147.133 44.5733 146.365 47.24 146.365 50.184C146.365 53.2987 147.432 54.856 149.565 54.856ZM227.175 46.664C227.431 46.5787 227.815 46.536 228.327 46.536C229.777 46.536 230.503 47.4747 230.503 49.352C230.503 50.376 230.268 51.2507 229.799 51.976C229.372 52.6587 228.689 53.0853 227.751 53.256C223.868 53.9813 220.049 54.792 216.295 55.688L216.103 57.224C214.908 65.6293 212.519 71.8373 208.935 75.848C205.393 79.9013 200.956 81.928 195.623 81.928C192.081 81.928 189.329 81.0533 187.367 79.304C185.447 77.5973 184.487 75.4 184.487 72.712C184.487 68.232 186.492 64.2427 190.503 60.744C194.513 57.2453 200.593 54.152 208.743 51.464L210.023 42.44C210.193 41.416 210.407 40.0507 210.663 38.344C208.657 43.6347 206.097 47.5813 202.983 50.184C199.868 52.7867 196.391 54.088 192.551 54.088C188.881 54.088 186.087 52.9787 184.167 50.76C182.247 48.4987 181.287 45.5973 181.287 42.056C181.287 40.4773 181.457 38.7493 181.799 36.872C182.14 34.952 182.673 32.3707 183.399 29.128C184.039 26.184 184.508 23.8373 184.807 22.088C185.148 20.3387 185.319 18.7813 185.319 17.416C185.319 15.368 184.529 14.344 182.951 14.344C181.713 14.344 180.241 14.9627 178.535 16.2C176.871 17.3947 175.1 19.2507 173.223 21.768C172.625 22.5787 171.964 22.984 171.239 22.984C170.641 22.984 170.108 22.7067 169.639 22.152C169.212 21.5547 168.998 20.8933 168.998 20.168C168.998 18.8453 169.596 17.352 170.791 15.688C175.143 9.71466 180.241 6.728 186.087 6.728C188.689 6.728 190.716 7.51733 192.167 9.096C193.66 10.6747 194.407 13 194.407 16.072C194.407 18.2907 194.193 20.5733 193.767 22.92C193.383 25.224 192.785 28.168 191.975 31.752C191.463 33.8853 191.079 35.6133 190.823 36.936C190.567 38.216 190.439 39.2827 190.439 40.136C190.439 42.312 190.823 43.8693 191.591 44.808C192.359 45.7467 193.703 46.216 195.623 46.216C197.927 46.216 200.273 44.9573 202.663 42.44C205.095 39.88 207.271 36.0187 209.191 30.856C211.153 25.6933 212.561 19.3787 213.415 11.912C213.628 10.0347 214.119 8.712 214.887 7.944C215.655 7.13333 216.764 6.728 218.215 6.728C221.201 6.728 222.695 8.22133 222.695 11.208C222.695 11.72 222.673 12.1253 222.631 12.424C221.735 18.7813 220.903 24.52 220.135 29.64C219.708 32.712 219.239 35.8693 218.727 39.112C218.257 42.3547 217.788 45.64 217.319 48.968C220.433 48.1147 223.719 47.3467 227.175 46.664ZM207.783 58.184C197.457 61.768 192.295 66.12 192.295 71.24C192.295 72.4347 192.657 73.416 193.383 74.184C194.151 74.9947 195.217 75.4 196.583 75.4C202.513 75.4 206.225 69.8107 207.719 58.632L207.783 58.184ZM259.212 41.352C259.767 41.352 260.193 41.6293 260.492 42.184C260.791 42.7387 260.94 43.4427 260.94 44.296C260.94 46.344 260.321 47.56 259.084 47.944C256.524 48.84 253.708 49.352 250.636 49.48C249.825 53.064 248.225 55.944 245.836 58.12C243.447 60.2533 240.737 61.32 237.708 61.32C235.148 61.32 232.951 60.7013 231.116 59.464C229.324 58.2267 227.959 56.584 227.02 54.536C226.081 52.488 225.612 50.2693 225.612 47.88C225.612 44.6373 226.231 41.7573 227.468 39.24C228.705 36.68 230.412 34.696 232.588 33.288C234.764 31.8373 237.175 31.112 239.82 31.112C243.063 31.112 245.665 32.2427 247.628 34.504C249.633 36.7227 250.807 39.4747 251.148 42.76C253.153 42.632 255.543 42.2053 258.316 41.48C258.657 41.3947 258.956 41.352 259.212 41.352ZM238.22 54.536C239.585 54.536 240.759 53.9813 241.74 52.872C242.764 51.7627 243.447 50.1627 243.788 48.072C242.465 47.176 241.441 46.0027 240.716 44.552C240.033 43.1013 239.692 41.5653 239.692 39.944C239.692 39.2613 239.756 38.5787 239.884 37.896H239.564C237.857 37.896 236.428 38.728 235.276 40.392C234.167 42.0133 233.612 44.3173 233.612 47.304C233.612 49.6507 234.06 51.4427 234.956 52.68C235.895 53.9173 236.983 54.536 238.22 54.536ZM261.975 61.32C260.055 61.32 258.476 60.4453 257.239 58.696C256.044 56.904 255.447 54.6853 255.447 52.04C255.447 48.84 255.66 45.9173 256.087 43.272C256.514 40.584 257.218 37.7467 258.199 34.76C258.626 33.48 259.223 32.5627 259.991 32.008C260.759 31.4533 261.975 31.176 263.639 31.176C264.578 31.176 265.218 31.3253 265.559 31.624C265.943 31.9227 266.135 32.3707 266.135 32.968C266.135 33.3093 265.9 34.4613 265.431 36.424C265.004 38.0027 264.663 39.432 264.407 40.712C263.554 45.192 263.127 48.1787 263.127 49.672C263.127 50.568 263.234 51.208 263.447 51.592C263.66 51.9333 264.002 52.104 264.471 52.104C265.111 52.104 265.9 51.464 266.839 50.184C267.82 48.904 268.844 46.9627 269.911 44.36C271.02 41.7573 272.087 38.5573 273.111 34.76C273.452 33.48 273.964 32.5627 274.647 32.008C275.372 31.4533 276.439 31.176 277.847 31.176C278.828 31.176 279.511 31.304 279.895 31.56C280.279 31.7733 280.471 32.2 280.471 32.84C280.471 33.9067 279.938 36.8293 278.871 41.608C277.676 47.0693 277.079 50.44 277.079 51.72C277.079 52.5307 277.25 53.1707 277.591 53.64C277.932 54.0667 278.38 54.28 278.935 54.28C279.788 54.28 280.791 53.768 281.943 52.744C283.138 51.6773 284.716 49.9707 286.679 47.624C287.191 47.0267 287.767 46.728 288.407 46.728C288.962 46.728 289.388 46.984 289.687 47.496C290.028 48.008 290.199 48.712 290.199 49.608C290.199 51.3147 289.794 52.6373 288.983 53.576C287.148 55.8373 285.164 57.6933 283.031 59.144C280.94 60.5947 278.551 61.32 275.863 61.32C273.815 61.32 272.3 60.5307 271.319 58.952C270.38 57.3733 269.911 55.1547 269.911 52.296C269.186 55.1973 268.098 57.4373 266.647 59.016C265.196 60.552 263.639 61.32 261.975 61.32ZM289.554 61.32C287.932 61.32 286.78 60.4667 286.098 58.76C285.458 57.0533 285.138 54.3227 285.138 50.568C285.138 45.0213 285.927 39.752 287.506 34.76C287.89 33.5227 288.508 32.6267 289.362 32.072C290.258 31.4747 291.495 31.176 293.074 31.176C293.927 31.176 294.524 31.2827 294.866 31.496C295.207 31.7093 295.378 32.1147 295.378 32.712C295.378 33.3947 295.058 34.9307 294.418 37.32C293.991 39.0267 293.65 40.52 293.394 41.8C293.138 43.08 292.924 44.6587 292.754 46.536C294.162 42.8667 295.74 39.88 297.49 37.576C299.239 35.272 300.946 33.6293 302.61 32.648C304.316 31.6667 305.874 31.176 307.282 31.176C310.055 31.176 311.442 32.5627 311.442 35.336C311.442 35.8907 311.25 37.2347 310.866 39.368C310.524 41.0747 310.354 42.1413 310.354 42.568C310.354 44.0613 310.887 44.808 311.954 44.808C313.148 44.808 314.684 43.8693 316.562 41.992C317.116 41.4373 317.692 41.16 318.29 41.16C318.844 41.16 319.271 41.416 319.569 41.928C319.911 42.3973 320.082 43.0373 320.082 43.848C320.082 45.4267 319.655 46.664 318.802 47.56C317.607 48.7973 316.199 49.864 314.578 50.76C312.999 51.6133 311.314 52.04 309.522 52.04C307.26 52.04 305.532 51.464 304.338 50.312C303.186 49.16 302.61 47.6027 302.61 45.64C302.61 45 302.674 44.36 302.802 43.72C302.887 42.8667 302.93 42.2907 302.93 41.992C302.93 41.3093 302.695 40.968 302.226 40.968C301.586 40.968 300.732 41.6933 299.666 43.144C298.642 44.552 297.618 46.4293 296.594 48.776C295.57 51.1227 294.738 53.5973 294.098 56.2C293.628 58.2053 293.074 59.5707 292.434 60.296C291.836 60.9787 290.876 61.32 289.554 61.32ZM330.263 61.32C327.319 61.32 324.652 60.5947 322.263 59.144C319.916 57.6933 318.06 55.6027 316.695 52.872C315.329 50.0987 314.647 46.8347 314.647 43.08C314.647 36.5947 316.033 30.6 318.807 25.096C321.58 19.5493 325.676 15.112 331.095 11.784C336.513 8.41333 343.02 6.728 350.615 6.728C352.577 6.728 354.668 6.87733 356.887 7.176C359.148 7.47466 361.196 7.92266 363.031 8.52C364.225 8.86133 364.823 9.71466 364.823 11.08C364.823 12.1893 364.396 13.2347 363.543 14.216C362.732 15.1973 361.772 15.688 360.663 15.688C360.321 15.688 360.065 15.6667 359.895 15.624C357.676 15.112 355.777 14.7493 354.199 14.536C352.62 14.28 350.956 14.152 349.207 14.152C343.788 14.152 339.18 15.4747 335.383 18.12C331.585 20.7227 328.748 24.1787 326.871 28.488C324.993 32.7973 324.055 37.448 324.055 42.44C324.055 46.0667 324.759 48.8827 326.167 50.888C327.617 52.8507 329.495 53.832 331.799 53.832C334.401 53.832 336.684 52.7653 338.647 50.632C340.609 48.4987 342.401 45.0427 344.023 40.264C345.644 35.4853 347.244 29 348.823 20.808C349.079 19.6133 349.591 18.8027 350.359 18.376C351.127 17.9493 352.151 17.736 353.431 17.736C356.46 17.736 357.975 18.7173 357.975 20.68C357.975 21.0213 357.911 21.448 357.783 21.96C356.673 26.0987 355.649 30.6853 354.711 35.72C353.815 40.712 353.367 44.5093 353.367 47.112C353.367 49.416 353.708 51.1013 354.391 52.168C355.073 53.192 356.119 53.704 357.527 53.704C358.892 53.704 360.193 53.256 361.431 52.36C362.668 51.4213 364.225 49.8427 366.103 47.624C366.615 47.0267 367.191 46.728 367.831 46.728C368.385 46.728 368.812 46.984 369.111 47.496C369.452 48.008 369.623 48.712 369.623 49.608C369.623 51.272 369.217 52.5947 368.407 53.576C366.316 56.0933 364.268 58.0133 362.263 59.336C360.257 60.6587 357.804 61.32 354.903 61.32C351.916 61.32 349.505 60.4667 347.671 58.76C345.836 57.0107 344.684 54.5573 344.215 51.4C341.057 58.0133 336.407 61.32 330.263 61.32ZM390.303 39.944C391.242 39.944 392.031 40.2853 392.671 40.968C393.354 41.608 393.695 42.4187 393.695 43.4C393.695 43.9547 393.567 44.552 393.311 45.192C392.628 46.7707 391.668 48.0933 390.431 49.16C389.194 50.2267 387.828 50.76 386.335 50.76C385.14 50.76 384.116 50.3333 383.263 49.48C382.452 48.6267 382.047 47.4747 382.047 46.024C382.047 45.2133 382.09 44.3387 382.175 43.4C382.26 42.7173 382.303 42.248 382.303 41.992C382.303 41.6507 382.218 41.3947 382.047 41.224C381.919 41.0533 381.748 40.968 381.535 40.968C380.938 40.968 380.127 41.6933 379.103 43.144C378.079 44.552 377.055 46.4293 376.031 48.776C375.007 51.1227 374.175 53.5973 373.535 56.2C373.066 58.248 372.532 59.6133 371.935 60.296C371.338 60.9787 370.356 61.32 368.991 61.32C367.37 61.32 366.218 60.4667 365.535 58.76C364.895 57.0533 364.575 54.3227 364.575 50.568C364.575 45.0213 365.364 39.752 366.943 34.76C367.327 33.5227 367.946 32.6267 368.799 32.072C369.695 31.4747 370.932 31.176 372.511 31.176C373.364 31.176 373.962 31.2827 374.303 31.496C374.644 31.7093 374.815 32.1147 374.815 32.712C374.815 33.3947 374.495 34.9307 373.855 37.32C373.428 39.0267 373.087 40.52 372.831 41.8C372.575 43.08 372.362 44.6587 372.191 46.536C373.599 42.8667 375.178 39.88 376.927 37.576C378.676 35.272 380.383 33.6293 382.047 32.648C383.711 31.6667 385.226 31.176 386.591 31.176C387.828 31.176 388.767 31.5387 389.407 32.264C390.09 32.9467 390.431 33.9707 390.431 35.336C390.431 36.1467 390.196 37.6827 389.727 39.944H390.303ZM424.679 46.728C425.233 46.728 425.66 46.984 425.958 47.496C426.3 48.008 426.471 48.712 426.471 49.608C426.471 51.3147 426.065 52.6373 425.255 53.576C423.42 55.8373 421.415 57.6933 419.239 59.144C417.063 60.5947 414.567 61.32 411.751 61.32C403.047 61.32 398.695 55.1973 398.695 42.952C398.695 41.0747 398.759 39.176 398.887 37.256H396.391C395.111 37.256 394.236 37.0213 393.767 36.552C393.34 36.0827 393.127 35.336 393.127 34.312C393.127 31.9227 394.087 30.728 396.007 30.728H399.655C400.38 26.0347 401.489 21.7467 402.983 17.864C404.476 13.9813 406.268 10.888 408.359 8.584C410.492 6.28 412.775 5.128 415.207 5.128C416.999 5.128 418.407 5.91733 419.431 7.496C420.455 9.07467 420.967 11.0587 420.967 13.448C420.967 20.0613 418.193 25.8213 412.647 30.728H419.815C420.497 30.728 420.988 30.8773 421.287 31.176C421.585 31.4747 421.735 32.0293 421.735 32.84C421.735 35.784 419.324 37.256 414.503 37.256H406.695C406.609 39.3893 406.567 41.0533 406.567 42.248C406.567 46.6853 407.079 49.8 408.103 51.592C409.169 53.384 410.833 54.28 413.095 54.28C414.929 54.28 416.551 53.7253 417.959 52.616C419.367 51.5067 421.031 49.8427 422.951 47.624C423.463 47.0267 424.039 46.728 424.679 46.728ZM413.479 11.272C412.839 11.272 412.113 12.0827 411.303 13.704C410.535 15.2827 409.788 17.5013 409.062 20.36C408.38 23.176 407.804 26.312 407.335 29.768C409.852 27.592 411.729 25.16 412.967 22.472C414.247 19.7413 414.887 17.2667 414.887 15.048C414.887 12.5307 414.417 11.272 413.479 11.272ZM429.644 26.952C427.852 26.952 426.508 26.5467 425.612 25.736C424.716 24.8827 424.268 23.7093 424.268 22.216C424.268 20.7227 424.844 19.4853 425.996 18.504C427.19 17.48 428.662 16.968 430.412 16.968C431.99 16.968 433.27 17.352 434.252 18.12C435.233 18.888 435.724 19.976 435.724 21.384C435.724 23.0907 435.169 24.456 434.06 25.48C432.95 26.4613 431.478 26.952 429.644 26.952ZM429.132 61.32C426.358 61.32 424.332 60.3387 423.052 58.376C421.814 56.4133 421.196 53.8107 421.196 50.568C421.196 48.648 421.43 46.1947 421.9 43.208C422.412 40.1787 423.052 37.3627 423.82 34.76C424.204 33.3947 424.716 32.456 425.356 31.944C425.996 31.432 427.02 31.176 428.428 31.176C430.604 31.176 431.692 31.9013 431.692 33.352C431.692 34.4187 431.286 36.8933 430.476 40.776C429.452 45.4693 428.94 48.648 428.94 50.312C428.94 51.592 429.11 52.5733 429.452 53.256C429.793 53.9387 430.369 54.28 431.18 54.28C431.948 54.28 432.908 53.7467 434.06 52.68C435.212 51.6133 436.748 49.928 438.668 47.624C439.18 47.0267 439.756 46.728 440.396 46.728C440.95 46.728 441.377 46.984 441.676 47.496C442.017 48.008 442.188 48.712 442.188 49.608C442.188 51.3147 441.782 52.6373 440.972 53.576C436.748 58.7387 432.801 61.32 429.132 61.32ZM449.234 61.32C445.052 61.32 441.788 60.1467 439.442 57.8C437.138 55.4107 435.986 52.2747 435.986 48.392C435.986 44.936 436.668 41.9067 438.034 39.304C439.399 36.7013 441.17 34.696 443.345 33.288C445.522 31.88 447.804 31.176 450.194 31.176C452.54 31.176 454.354 31.88 455.634 33.288C456.956 34.6533 457.618 36.424 457.618 38.6C457.618 40.392 457.212 41.9067 456.402 43.144C455.634 44.3813 454.61 45 453.33 45C452.519 45 451.858 44.808 451.346 44.424C450.876 44.04 450.642 43.5067 450.642 42.824C450.642 42.5253 450.684 42.184 450.77 41.8C450.855 41.416 450.919 41.1387 450.962 40.968C451.175 40.328 451.282 39.7307 451.282 39.176C451.282 38.6213 451.132 38.1947 450.833 37.896C450.578 37.5973 450.194 37.448 449.682 37.448C448.7 37.448 447.783 37.896 446.93 38.792C446.076 39.6453 445.394 40.8187 444.882 42.312C444.37 43.8053 444.114 45.448 444.114 47.24C444.114 52.1893 446.268 54.664 450.578 54.664C452.327 54.664 454.204 54.088 456.21 52.936C458.258 51.7413 460.263 49.9707 462.226 47.624C462.738 47.0267 463.314 46.728 463.954 46.728C464.508 46.728 464.935 46.984 465.234 47.496C465.575 48.008 465.746 48.712 465.746 49.608C465.746 51.2293 465.34 52.552 464.53 53.576C462.524 56.0507 460.114 57.9707 457.298 59.336C454.524 60.6587 451.836 61.32 449.234 61.32ZM484.828 46.728C485.383 46.728 485.809 46.984 486.108 47.496C486.449 48.008 486.62 48.712 486.62 49.608C486.62 51.3147 486.215 52.6373 485.404 53.576C483.569 55.8373 481.564 57.6933 479.388 59.144C477.255 60.5947 474.823 61.32 472.092 61.32C468.337 61.32 465.543 59.6133 463.708 56.2C461.916 52.7867 461.02 48.3707 461.02 42.952C461.02 37.7467 461.681 31.816 463.004 25.16C464.369 18.504 466.353 12.7867 468.956 8.008C471.601 3.22933 474.737 0.839996 478.364 0.839996C480.412 0.839996 482.012 1.8 483.164 3.72C484.359 5.59733 484.956 8.30667 484.956 11.848C484.956 16.9253 483.548 22.8133 480.732 29.512C477.916 36.2107 474.097 42.8453 469.276 49.416C469.575 51.1653 470.065 52.424 470.748 53.192C471.431 53.9173 472.327 54.28 473.436 54.28C475.185 54.28 476.721 53.7893 478.044 52.808C479.367 51.784 481.052 50.056 483.1 47.624C483.612 47.0267 484.188 46.728 484.828 46.728ZM476.956 7.176C475.975 7.176 474.865 8.94667 473.628 12.488C472.391 16.0293 471.303 20.424 470.364 25.672C469.425 30.92 468.913 35.9547 468.828 40.776C471.857 35.784 474.268 30.792 476.06 25.8C477.852 20.7653 478.748 16.1787 478.748 12.04C478.748 8.79733 478.151 7.176 476.956 7.176ZM504.359 48.648C504.914 48.648 505.34 48.904 505.639 49.416C505.98 49.928 506.151 50.632 506.151 51.528C506.151 53.064 505.788 54.3867 505.063 55.496C503.868 57.3307 502.29 58.76 500.327 59.784C498.407 60.808 496.103 61.32 493.415 61.32C489.319 61.32 486.14 60.104 483.879 57.672C481.618 55.1973 480.487 51.8693 480.487 47.688C480.487 44.744 481.106 42.0133 482.343 39.496C483.58 36.936 485.287 34.9093 487.463 33.416C489.682 31.9227 492.178 31.176 494.951 31.176C497.426 31.176 499.41 31.9227 500.903 33.416C502.396 34.8667 503.143 36.8507 503.143 39.368C503.143 42.312 502.076 44.8507 499.943 46.984C497.852 49.0747 494.268 50.7387 489.191 51.976C490.215 53.9387 491.943 54.92 494.375 54.92C496.124 54.92 497.554 54.5147 498.663 53.704C499.815 52.8933 501.138 51.528 502.631 49.608C503.143 48.968 503.719 48.648 504.359 48.648ZM493.863 37.448C492.284 37.448 490.94 38.3653 489.831 40.2C488.764 42.0347 488.231 44.2533 488.231 46.856V46.984C490.748 46.3867 492.732 45.4907 494.183 44.296C495.634 43.1013 496.359 41.7147 496.359 40.136C496.359 39.3253 496.124 38.6853 495.655 38.216C495.228 37.704 494.631 37.448 493.863 37.448ZM515.051 61.32C513.173 61.32 511.744 60.808 510.763 59.784C509.824 58.76 509.355 57.416 509.355 55.752C509.355 53.832 509.888 52.296 510.955 51.144C512.064 49.992 513.6 49.416 515.562 49.416C517.44 49.416 518.848 49.8853 519.787 50.824C520.768 51.72 521.259 53.064 521.259 54.856C521.259 56.8187 520.704 58.3973 519.595 59.592C518.485 60.744 516.971 61.32 515.051 61.32ZM538.046 61.32C533.865 61.32 530.601 60.1467 528.254 57.8C525.95 55.4107 524.798 52.2747 524.798 48.392C524.798 44.936 525.481 41.9067 526.846 39.304C528.211 36.7013 529.982 34.696 532.158 33.288C534.334 31.88 536.617 31.176 539.006 31.176C541.353 31.176 543.166 31.88 544.446 33.288C545.769 34.6533 546.43 36.424 546.43 38.6C546.43 40.392 546.025 41.9067 545.214 43.144C544.446 44.3813 543.422 45 542.142 45C541.331 45 540.67 44.808 540.158 44.424C539.689 44.04 539.454 43.5067 539.454 42.824C539.454 42.5253 539.497 42.184 539.582 41.8C539.667 41.416 539.731 41.1387 539.774 40.968C539.987 40.328 540.094 39.7307 540.094 39.176C540.094 38.6213 539.945 38.1947 539.646 37.896C539.39 37.5973 539.006 37.448 538.494 37.448C537.513 37.448 536.595 37.896 535.742 38.792C534.889 39.6453 534.206 40.8187 533.694 42.312C533.182 43.8053 532.926 45.448 532.926 47.24C532.926 52.1893 535.081 54.664 539.39 54.664C541.139 54.664 543.017 54.088 545.022 52.936C547.07 51.7413 549.075 49.9707 551.038 47.624C551.55 47.0267 552.126 46.728 552.766 46.728C553.321 46.728 553.747 46.984 554.046 47.496C554.387 48.008 554.558 48.712 554.558 49.608C554.558 51.2293 554.153 52.552 553.342 53.576C551.337 56.0507 548.926 57.9707 546.11 59.336C543.337 60.6587 540.649 61.32 538.046 61.32ZM582.025 41.352C582.579 41.352 583.006 41.6293 583.305 42.184C583.603 42.7387 583.753 43.4427 583.753 44.296C583.753 46.344 583.134 47.56 581.897 47.944C579.337 48.84 576.521 49.352 573.449 49.48C572.638 53.064 571.038 55.944 568.649 58.12C566.259 60.2533 563.55 61.32 560.521 61.32C557.961 61.32 555.763 60.7013 553.929 59.464C552.137 58.2267 550.771 56.584 549.833 54.536C548.894 52.488 548.424 50.2693 548.424 47.88C548.424 44.6373 549.043 41.7573 550.281 39.24C551.518 36.68 553.225 34.696 555.401 33.288C557.577 31.8373 559.987 31.112 562.633 31.112C565.875 31.112 568.478 32.2427 570.441 34.504C572.446 36.7227 573.619 39.4747 573.961 42.76C575.966 42.632 578.355 42.2053 581.129 41.48C581.47 41.3947 581.769 41.352 582.025 41.352ZM561.033 54.536C562.398 54.536 563.571 53.9813 564.553 52.872C565.577 51.7627 566.259 50.1627 566.601 48.072C565.278 47.176 564.254 46.0027 563.529 44.552C562.846 43.1013 562.505 41.5653 562.505 39.944C562.505 39.2613 562.569 38.5787 562.697 37.896H562.377C560.67 37.896 559.241 38.728 558.089 40.392C556.979 42.0133 556.425 44.3173 556.425 47.304C556.425 49.6507 556.873 51.4427 557.769 52.68C558.707 53.9173 559.795 54.536 561.033 54.536ZM582.804 61.32C581.182 61.32 580.03 60.4667 579.348 58.76C578.708 57.0533 578.388 54.3227 578.388 50.568C578.388 45.0213 579.177 39.752 580.756 34.76C581.14 33.5227 581.758 32.6267 582.612 32.072C583.508 31.4747 584.745 31.176 586.324 31.176C587.177 31.176 587.774 31.2827 588.116 31.496C588.457 31.7093 588.628 32.1147 588.628 32.712C588.628 33.3947 588.308 34.9307 587.668 37.32C587.241 39.0267 586.9 40.52 586.644 41.8C586.388 43.0373 586.174 44.5947 586.004 46.472C587.156 43.144 588.521 40.328 590.1 38.024C591.721 35.72 593.364 34.0133 595.028 32.904C596.734 31.752 598.334 31.176 599.828 31.176C601.321 31.176 602.366 31.5173 602.964 32.2C603.604 32.8827 603.924 33.928 603.924 35.336C603.924 36.7013 603.518 39.176 602.708 42.76C602.366 44.296 602.132 45.448 602.004 46.216C603.412 42.632 604.969 39.7093 606.676 37.448C608.425 35.1867 610.132 33.5867 611.796 32.648C613.46 31.6667 614.996 31.176 616.404 31.176C617.769 31.176 618.793 31.5387 619.476 32.264C620.201 32.9467 620.564 33.9707 620.564 35.336C620.564 36.4453 620.329 38.536 619.86 41.608C619.433 44.2107 619.092 46.6853 618.836 49.032C618.58 51.336 618.452 53.9173 618.452 56.776C618.452 58.3973 618.11 59.5707 617.428 60.296C616.788 60.9787 615.721 61.32 614.228 61.32C612.82 61.32 611.796 60.9573 611.156 60.232C610.516 59.5067 610.196 58.4187 610.196 56.968C610.196 55.2613 610.494 52.4453 611.092 48.52C611.604 45.1067 611.86 42.9307 611.86 41.992C611.86 41.3093 611.625 40.968 611.156 40.968C610.601 40.968 609.812 41.6933 608.788 43.144C607.764 44.552 606.74 46.4293 605.716 48.776C604.692 51.1227 603.86 53.5973 603.22 56.2C602.75 58.248 602.196 59.6133 601.556 60.296C600.958 60.9787 599.977 61.32 598.612 61.32C597.204 61.32 596.137 60.6587 595.412 59.336C594.729 57.9707 594.388 56.328 594.388 54.408C594.388 52.7867 594.601 50.44 595.028 47.368C595.369 44.6373 595.54 42.8453 595.54 41.992C595.54 41.3093 595.305 40.968 594.836 40.968C594.196 40.968 593.385 41.736 592.404 43.272C591.422 44.808 590.462 46.7707 589.524 49.16C588.628 51.5493 587.902 53.896 587.348 56.2C586.878 58.2053 586.324 59.5707 585.684 60.296C585.086 60.9787 584.126 61.32 582.804 61.32Z" fill="#7284E4"/>
</svg>
