<svg width="48" height="48" viewBox="0 0 48 48" fill="none" xmlns="http://www.w3.org/2000/svg">
<path fill-rule="evenodd" clip-rule="evenodd" d="M9.8724 40.8652C10.7165 40.4453 11.6162 40.0763 12.5274 39.7025C14.3543 38.9532 16.2276 38.1848 17.7915 36.9502C19.549 38.5525 21.7197 39.3796 24.6142 39.3796C27.5088 39.3796 29.6796 38.5526 31.4371 36.9502C33.001 38.1849 34.8743 38.9532 36.7012 39.7026C37.3321 39.9614 37.9575 40.2179 38.5627 40.4906C43.1238 36.4596 46 30.5657 46 24C46 11.8497 36.1503 2 24 2C11.8497 2 2 11.8497 2 24C2 30.7721 5.05984 36.8295 9.8724 40.8652ZM48 24C48 37.2548 37.2548 48 24 48C10.7452 48 0 37.2548 0 24C0 10.7452 10.7452 0 24 0C37.2548 0 48 10.7452 48 24ZM24.7425 36.5118C27.5229 36.5118 29.9557 34.774 30.8246 33.9051V31.7334C31.2741 31.1098 32.2524 29.3484 32.5688 27.2915C33.8544 26.8959 36.2608 22.1161 33.4589 21.9183C34.8763 18.8526 36.2721 10.0182 29.7668 9.32592C28.6131 6.2602 20.8034 5.89495 17.1452 10.0182C14.2369 13.2961 15.3344 18.5775 15.8919 21.2601L15.8919 21.2603C15.9421 21.5018 15.9879 21.7222 16.026 21.9183C13.2241 22.1161 15.6305 26.8959 16.9161 27.2915C17.2325 29.3484 18.2107 31.1098 18.6603 31.7334V33.9051C19.5292 34.774 21.9621 36.5118 24.7425 36.5118Z" fill="#202123"/>
</svg>
